<svg width="327" height="269" viewBox="0 0 327 269" fill="none" xmlns="http://www.w3.org/2000/svg">
<path d="M5.29079 159.311L25.6539 146.97L26.1299 146.674L60.445 125.863L60.9166 125.568L90.6372 107.552C92.0011 106.72 93.5664 106.277 95.164 106.27C96.7616 106.263 98.3307 106.692 99.7019 107.512L131.739 126.542L132.225 126.837L160.07 143.373C161.423 144.179 162.967 144.607 164.541 144.611C166.116 144.615 167.662 144.197 169.019 143.398L172.168 141.558L172.482 141.373L198.376 126.208L198.444 126.168L198.863 125.924L228.935 108.315C230.296 107.514 231.848 107.095 233.427 107.102C235.006 107.109 236.554 107.542 237.908 108.355L267.326 125.946L267.808 126.23L302.829 147.18L303.311 147.476L322.476 158.935C328.513 162.545 328.507 171.567 322.465 175.168L301.796 187.475L301.32 187.77L267.689 207.827L267.213 208.111L233.02 228.502L232.544 228.786L197.952 249.421L197.47 249.717L168.567 266.957C167.208 267.772 165.653 268.203 164.068 268.205C162.483 268.207 160.927 267.779 159.566 266.967L130.444 249.71L129.958 249.414L94.7926 228.554L94.3107 228.27L60.4583 208.198L59.972 207.903L27.5993 188.709L27.113 188.413L5.36766 175.523C-0.663678 171.953 -0.706548 162.946 5.29079 159.311Z" fill="#F9F8FF"/>
<path opacity="0.3" d="M198.248 126.128L198.378 126.048L198.44 126.163L198.86 125.918L232.917 146.29L233.395 146.574L268.421 167.524L268.901 167.814L301.79 187.482L301.314 187.772L268.421 168.097L267.939 167.809L232.913 146.859L232.435 146.574L198.508 126.283L198.373 126.203L198.248 126.128Z" fill="#908ABC"/>
<path opacity="0.3" d="M158.249 142.943L158.489 142.515L164.478 146.095L164.964 146.385L198.666 166.547L199.148 166.831L234.169 187.781L234.65 188.07L267.683 207.829L267.207 208.113L234.169 188.354L233.688 188.066L198.666 167.116H198.661L198.185 166.831L164.482 146.674L163.996 146.38L158.249 142.943Z" fill="#908ABC"/>
<path opacity="0.3" d="M60.4448 125.863L60.9164 125.574L96.9433 147.122L97.4252 147.412L129.663 166.692L130.145 166.982L163.853 187.138L164.329 187.427H164.333L199.355 208.373L199.837 208.661L233.014 228.504L232.538 228.788H232.533L199.355 208.945L198.874 208.657L163.847 187.711L163.371 187.422L129.663 167.265L129.183 166.976L96.9433 147.696L96.4629 147.408L60.4448 125.863Z" fill="#908ABC"/>
<path opacity="0.3" d="M25.6538 146.963L26.1298 146.674L61.7147 167.953L62.2011 168.242L94.4362 187.522L94.9166 187.812H94.9211L128.624 207.974L129.106 208.258L164.126 229.208L164.613 229.497L197.936 249.424L197.454 249.714L164.126 229.781L163.641 229.491L128.62 208.547L128.138 208.258L94.4362 188.1L93.9498 187.812L61.7147 168.532L61.2284 168.242L25.6538 146.963Z" fill="#908ABC"/>
<path opacity="0.3" d="M129.958 249.414L163.641 229.492L164.126 229.208L198.874 208.657L199.355 208.373L233.688 188.066L234.17 187.781L267.939 167.809L268.421 167.524L302.82 147.177L303.302 147.467L268.901 167.814L268.421 168.098L234.65 188.071L234.17 188.354L199.837 208.661L199.355 208.945L164.613 229.498L164.126 229.781L130.444 249.704L129.958 249.414Z" fill="#908ABC"/>
<path opacity="0.3" d="M94.3062 228.271L128.138 208.258L128.624 207.974L163.371 187.422L163.853 187.138L198.186 166.831L198.666 166.547L232.436 146.574L232.918 146.29L267.318 125.943L267.799 126.227L233.395 146.574L232.913 146.859L199.148 166.831L198.666 167.116H198.662L164.333 187.428H164.329L163.847 187.711L129.106 208.258L128.62 208.548L94.7925 228.554H94.7866L94.3062 228.271Z" fill="#908ABC"/>
<path opacity="0.3" d="M59.9731 207.908L93.9497 187.811L94.436 187.522L129.183 166.975L129.663 166.691L163.996 146.38L164.478 146.095L172.166 141.552L172.478 141.367L198.247 126.128L198.378 126.048L198.44 126.163L198.508 126.283L198.619 126.481L164.964 146.384L164.482 146.674L130.145 166.981L129.663 167.265L94.9209 187.811H94.9165L94.436 188.1L60.458 208.197L59.9731 207.908Z" fill="#908ABC"/>
<path opacity="0.3" d="M27.1133 188.419L61.2288 168.242L61.7151 167.953L96.4633 147.408L96.9438 147.122L131.739 126.542L132.226 126.832L97.4257 147.412L96.9438 147.696L62.2015 168.242L61.7151 168.532L27.5996 188.709L27.1133 188.419Z" fill="#908ABC"/>
<path opacity="0.45" d="M233.166 214.171L171.391 249.617C169.567 250.666 167.494 251.22 165.382 251.225C163.271 251.23 161.195 250.685 159.366 249.645L50.9647 182.476C42.9567 177.919 46.6435 174.049 54.6712 169.527L104.629 141.384C106.428 140.371 108.463 139.835 110.534 139.829C112.606 139.822 114.644 140.345 116.449 141.347L224.544 201.819C232.611 206.295 241.168 209.573 233.166 214.171Z" fill="#E1E1EF"/>
<path d="M108.952 61.2886L120.812 68.0713C124.379 70.0973 127.5 69.3045 128.66 66.2215L152.023 3.06272C154.698 -4.16046 165.577 2.35802 167.896 12.5762L182.342 76.1754C183.412 80.844 186.622 85.4246 190.368 87.5387L193.845 89.4766C197.234 91.4145 200.177 90.7979 201.514 88.0672L206.24 78.1133C209.183 71.9472 219.081 77.7609 221.757 87.2744C223.005 91.6788 226.126 95.907 229.604 97.8449L232.636 99.5186C236.292 101.633 239.502 100.752 240.572 97.4045L244.942 84.1913C247.349 76.7039 258.318 82.9581 260.815 93.1763L275.261 152.019C276.42 156.687 279.992 160.175 283.738 162.201L300.051 172.455L108.952 61.2886Z" fill="url(#paint0_linear)"/>
<path d="M96.3677 67.9796L108.228 74.7807C111.795 76.8122 114.916 76.0172 116.075 72.9258L139.438 9.59639C142.114 2.35369 152.993 8.88978 155.311 19.1356L169.757 82.9066C170.828 87.5879 174.038 92.1808 177.783 94.3006L181.261 96.2438C184.649 98.187 187.592 97.5687 188.93 94.8306L193.656 84.8498C196.599 78.667 206.497 84.4965 209.172 94.0357C210.421 98.452 213.542 102.692 217.019 104.635L220.051 106.313C223.707 108.433 226.918 107.549 227.988 104.193L232.357 90.9443C234.765 83.4366 245.733 89.7077 248.23 99.9535L262.676 158.955C263.836 163.636 267.641 167.627 271.386 169.659L287.467 179.447L96.3677 67.9796Z" fill="url(#paint1_linear)"/>
<path d="M182.171 206.918C183.827 206.918 185.17 205.576 185.17 203.92C185.17 202.265 183.827 200.923 182.171 200.923C180.514 200.923 179.171 202.265 179.171 203.92C179.171 205.576 180.514 206.918 182.171 206.918Z" fill="#24126A"/>
<path d="M212.076 173.063C213.732 173.063 215.075 171.721 215.075 170.066C215.075 168.41 213.732 167.068 212.076 167.068C210.42 167.068 209.077 168.41 209.077 170.066C209.077 171.721 210.42 173.063 212.076 173.063Z" fill="#24126A"/>
<path d="M218.604 196.163C220.26 196.163 221.603 194.821 221.603 193.165C221.603 191.51 220.26 190.167 218.604 190.167C216.947 190.167 215.604 191.51 215.604 193.165C215.604 194.821 216.947 196.163 218.604 196.163Z" fill="#24126A"/>
<path d="M152.972 190.432C154.628 190.432 155.971 189.09 155.971 187.434C155.971 185.779 154.628 184.437 152.972 184.437C151.315 184.437 149.972 185.779 149.972 187.434C149.972 189.09 151.315 190.432 152.972 190.432Z" fill="#24126A"/>
<path d="M171.762 169.978C173.418 169.978 174.761 168.636 174.761 166.98C174.761 165.325 173.418 163.983 171.762 163.983C170.105 163.983 168.762 165.325 168.762 166.98C168.762 168.636 170.105 169.978 171.762 169.978Z" fill="#24126A"/>
<path d="M186.494 178.177L153.149 184.613C152.972 184.613 152.884 184.613 152.708 184.701V184.525L151.12 184.084V185.936C151.12 186.024 151.12 186.112 151.12 186.2C151.296 186.905 152.531 187.434 153.766 187.346L187.112 180.91L186.494 178.177Z" fill="url(#paint2_linear)"/>
<path d="M214.37 166.804L213.311 167.686C212.429 167.333 211.106 167.421 210.224 167.95L186.494 178.265L189.846 180.205L213.576 169.89C214.105 169.537 214.37 169.185 214.37 168.744V166.804Z" fill="url(#paint3_linear)"/>
<path d="M174.055 164.424C173.438 163.718 172.026 163.454 170.88 163.807C170.703 163.807 170.615 163.895 170.527 163.983C170.438 163.895 170.438 163.807 170.35 163.718C170.174 163.542 169.645 163.189 169.645 163.189V165.041C169.645 165.217 169.733 165.394 169.909 165.658L185.259 179.676L189.493 178.442L174.055 164.424Z" fill="url(#paint4_linear)"/>
<path d="M220.721 189.991L220.192 190.167L219.839 190.872C219.751 190.784 219.574 190.784 219.398 190.696L189.316 178.441L187.199 180.822L217.281 193.076C218.428 193.429 219.839 193.165 220.457 192.459C220.633 192.283 220.721 192.018 220.721 191.842V189.991Z" fill="#9D9BB4"/>
<path d="M185.17 179.676L180.23 200.835L179.877 200.659V202.598C179.966 203.215 180.76 203.744 181.818 203.832C183.141 203.921 184.288 203.48 184.465 202.686L189.758 180.028L185.17 179.676Z" fill="#E1E1EF"/>
<path d="M219.486 188.845L191.61 177.472L213.664 167.862C214.634 167.333 214.723 166.452 213.929 165.923L213.664 165.746C212.782 165.217 211.282 165.306 210.312 165.923L188.258 175.532L174.055 162.572C173.438 161.867 172.026 161.603 170.879 161.955C169.733 162.308 169.292 163.101 169.821 163.807L184.024 176.767L153.06 182.762C151.737 182.85 150.943 183.555 151.119 184.349C151.296 185.054 152.531 185.583 153.766 185.495L184.729 179.5L179.789 200.482C179.613 201.188 180.495 201.893 181.73 202.069C183.053 202.158 184.2 201.717 184.376 200.923L189.317 179.941L217.193 191.314C218.339 191.666 219.751 191.402 220.368 190.696C221.074 189.991 220.633 189.109 219.486 188.845ZM188.611 177.472L188.082 178.089L186.935 178.001L186.758 177.384L187.817 177.119L188.611 177.472Z" fill="#E1E1EF"/>
<path d="M187.64 179.235C186.317 179.235 185.17 178.177 185.17 176.767V148.643H190.022V176.767C190.022 178.177 188.963 179.235 187.64 179.235Z" fill="#24126A"/>
<path d="M174.672 115.229C174.584 114.612 174.231 113.995 173.437 113.554L172.908 113.29C171.055 112.232 167.703 112.32 165.498 113.554L150.148 122.458C149.001 123.164 148.384 123.957 148.384 124.751V127.396C148.384 128.101 148.825 128.718 149.619 129.247L150.148 129.511C152.001 130.569 155.353 130.481 157.558 129.247L172.908 120.343C174.055 119.725 174.672 118.844 174.672 118.05V115.229Z" fill="#9D9BB4"/>
<path d="M150.148 126.955L149.619 126.69C147.766 125.632 147.943 123.693 150.148 122.458L165.497 113.554C167.703 112.32 170.967 112.143 172.908 113.29L173.437 113.554C175.289 114.612 175.113 116.552 172.908 117.786L157.558 126.69C155.264 127.925 152 128.013 150.148 126.955Z" fill="#CFCCDC"/>
<path d="M182.7 139.298L150.501 157.9C148.913 158.782 147.59 157.812 147.59 155.696C147.59 153.58 148.913 151.112 150.501 150.142L187.375 128.895V130.393C187.375 133.832 185.258 137.799 182.7 139.298Z" fill="#515151"/>
<path d="M185.081 59.9511C183.935 59.334 182.523 59.4221 180.935 60.3038L179.965 60.8328C176.436 62.8605 173.525 68.4148 173.525 73.1755V136.829L182.082 131.892V133.92L171.849 142.295L148.56 157.9L181.376 176.414L200.254 161.955L211.017 152.787L217.721 78.289L185.081 59.9511Z" fill="#E1E1EF"/>
<path d="M160.999 165.129C160.999 165.129 160.117 162.837 161.881 161.074C163.645 159.311 172.643 155.52 173.349 155.167C173.966 154.726 177.23 152.346 177.23 152.346L178.201 150.142C178.201 150.142 159.764 151.905 159.587 152.258C159.323 152.522 150.942 160.016 151.207 160.368C151.471 160.721 156.941 162.044 156.941 162.044L157.999 163.542L160.999 165.129Z" fill="#2D2D2D"/>
<path d="M213.575 78.8181L212.605 79.3471C209.076 81.3748 206.165 86.9291 206.165 91.6898V155.343L183.141 168.656C181.553 169.538 180.229 172.006 180.229 174.21C180.229 176.326 181.553 177.296 183.141 176.414L215.339 157.812C217.898 156.313 220.015 152.346 220.015 148.819V147.321V83.667C220.015 78.9062 217.104 76.7903 213.575 78.8181Z" fill="#B5B3C9"/>
<path d="M152.353 178.883C152.353 178.883 147.59 181.969 146.002 183.732C144.414 185.495 141.238 189.198 142.561 190.961C143.885 192.724 148.295 193.694 153.059 189.286C157.823 184.878 156.5 184.613 160.469 182.498C164.527 180.293 165.586 178.001 165.145 176.591C164.615 175.268 162.675 172.888 161.528 173.417C160.381 173.946 152.353 178.883 152.353 178.883Z" fill="#160A5B"/>
<path d="M170.983 189.586C170.983 189.586 169.306 193.377 168.424 194.611C167.542 195.845 163.308 202.986 165.513 204.662C167.719 206.337 171.953 205.896 175.305 202.281C178.657 198.666 179.363 194.258 180.157 192.848C180.951 191.437 183.068 187.558 182.098 185.354C181.127 183.15 180.951 182.709 180.951 182.709L170.983 189.586Z" fill="#160A5B"/>
<path d="M158.176 138.328C158.176 138.328 144.061 152.257 141.768 159.222C141.768 159.222 140.797 163.013 143.532 165.923C146.267 168.92 152.089 178.53 152.089 178.53C152.089 178.53 156.412 183.731 161.969 179.588C161.969 179.588 164.527 175.532 162.94 172.887C161.352 170.243 157.294 161.691 157.294 161.691C157.294 161.691 166.38 155.431 170.791 153.932C175.29 152.345 177.672 151.111 177.672 151.111C177.672 151.111 176.878 155.343 173.614 159.398C170.35 163.542 164.88 170.066 166.733 174.739C168.585 179.323 169.644 180.734 171.32 183.379C172.996 186.024 174.672 191.578 176.084 192.107C177.583 192.724 184.288 193.341 185.346 188.933C186.405 184.525 183.053 175.973 181.553 173.152C181.553 173.152 199.814 152.081 201.49 149.789C203.166 147.497 163.822 134.713 158.176 138.328Z" fill="#24126A"/>
<path d="M162.851 172.888C161.263 170.243 157.205 161.691 157.205 161.691C157.205 161.691 166.291 155.432 170.702 153.933C175.201 152.346 177.583 151.112 177.583 151.112C178.465 149.965 181.2 145.381 182.435 141.854C172.114 138.857 160.998 136.565 158.176 138.328C159.146 140.797 164.439 140.797 164.439 140.797C164.439 140.797 166.38 145.557 167.703 146.174C169.026 146.792 172.114 146.086 172.114 146.086C172.114 146.086 171.584 146.88 169.379 148.467C167.174 150.054 153.324 161.427 153.324 161.427C153.324 161.427 154.118 161.867 157.823 168.568C161.528 175.268 161.969 179.676 161.969 179.676C161.969 179.676 164.439 175.621 162.851 172.888Z" fill="#160A5B"/>
<path d="M194.08 145.645C185.964 144.852 176.437 144.764 178.554 149.084C182.171 156.313 189.492 156.666 189.492 156.666C189.404 159.311 178.289 172.182 178.289 172.182C178.289 172.182 178.289 172.182 180.936 177.208C183.582 182.233 183.229 191.49 183.229 191.49C184.2 190.961 184.993 190.08 185.346 188.845C186.405 184.437 183.053 175.885 181.553 173.064C181.553 173.064 199.814 151.993 201.49 149.701C201.931 149.084 198.843 147.497 194.08 145.645Z" fill="#160A5B"/>
<path d="M143.885 101.211L146.09 99.5363C146.09 99.5363 157.823 93.0123 161.705 90.9845C163.822 89.8384 166.027 87.8106 167.527 86.2237C169.026 84.6368 171.144 83.7552 173.349 83.7552L193.815 83.667C193.815 83.667 196.197 87.458 196.991 88.2515C197.608 88.7804 203.166 93.4531 207.136 97.3322C209.341 99.4481 210.929 102.093 211.811 105.091C214.105 113.113 214.016 129.335 214.369 140.885C214.369 140.885 212.958 141.414 209.429 142.207C205.901 142.912 206.342 142.472 206.342 142.472C206.342 142.472 201.137 154.197 193.992 155.343C186.934 156.489 177.319 153.139 175.643 142.031C175.643 142.031 161.793 140.003 158.088 138.416C157.735 138.24 157.647 137.887 157.823 137.534C159.499 135.33 165.763 126.69 166.292 121.136C166.998 114.7 166.733 105.267 166.292 102.71C166.292 102.71 155.882 106.677 152.53 107.295C152.53 107.295 139.827 121.224 134.534 125.015C134.534 125.015 136.387 122.194 132.682 120.255L143.885 101.211Z" fill="#17BCB2"/>
<path d="M209.517 142.031C210.047 141.943 210.488 141.766 210.929 141.678L210.223 140.267L190.992 138.24L179.789 138.857L175.907 142.56C176.084 143.794 176.437 144.852 176.789 145.822C176.789 145.822 181.553 146.527 183.758 145.998C185.964 145.557 203.078 148.026 203.078 148.026C205.018 145.205 206.253 142.648 206.342 142.295C206.43 142.472 206.606 142.648 209.517 142.031Z" fill="#39335E"/>
<path d="M183.494 135.331C183.494 135.242 183.405 135.242 183.317 135.242C182.347 135.242 176.348 135.066 174.143 134.273C171.673 133.391 169.026 133.567 168.938 133.744C168.762 133.92 164.704 135.595 164.439 136.3C164.263 136.917 163.821 139.122 164.351 139.915C164.88 140.708 165.145 141.237 165.145 141.237L165.586 141.326C165.586 141.326 166.115 142.384 166.468 142.824C166.644 143.001 166.733 143.177 166.821 143.353C167.085 143.882 167.526 144.852 167.703 144.852C167.968 144.852 169.203 145.117 169.555 145.028C169.82 144.94 170.085 144.147 169.908 143.794C169.908 143.706 169.908 143.618 169.997 143.618C170.614 143.53 172.202 143.353 174.319 143.53C176.966 143.794 180.759 142.031 181.112 141.855C181.112 141.855 181.112 141.855 181.2 141.855L184.993 141.502C185.081 141.502 185.17 141.414 185.17 141.326L183.494 135.331Z" fill="#FCD1C5"/>
<path d="M178.994 95.6569C178.994 95.6569 175.819 107.471 179.171 119.637C179.171 119.637 191.521 96.6267 192.844 92.9238C194.167 89.221 194.697 86.5761 193.462 85.1655C192.227 83.8431 181.023 90.7198 181.023 90.7198L178.994 95.6569Z" fill="#F0F6FF"/>
<path d="M182.171 114.171C182.171 114.171 184.552 106.942 184.111 104.65C183.67 102.358 183.141 100.682 183.141 100.682L185.258 98.7429L186.228 100.682C186.228 100.682 190.904 97.2441 191.169 96.627C191.169 96.627 187.375 99.1837 186.228 99.6245C186.228 99.6245 185.699 98.7429 184.905 98.3902C184.2 98.0376 182.347 100.594 182.347 100.594L181.994 104.914L180.142 115.053L180.759 116.552L182.171 114.171Z" fill="#C4CCD6"/>
<path d="M180.142 95.745C180.142 95.745 179.7 100.418 180.053 100.682C180.406 101.035 181.906 101.035 182.523 100.682C183.229 100.329 184.905 98.3017 184.905 98.3017C184.905 98.3017 182.788 94.5989 180.142 95.745Z" fill="#24126A"/>
<path d="M182.612 99.8892C182.612 99.8892 183.847 103.151 182.7 107.559C181.553 111.967 181.024 116.111 181.024 116.111L179.171 119.549C179.171 119.549 176.878 112.849 177.671 106.061C178.024 103.063 180.318 100.33 180.318 100.33L182.612 99.8892Z" fill="#24126A"/>
<path d="M173.26 76.7902C173.26 76.7902 172.731 79.6995 172.908 80.2285C173.084 80.7575 173.878 81.1101 173.702 82.2562C173.525 83.4024 174.143 86.7526 174.495 87.8105C174.495 87.8105 174.231 89.0448 174.584 89.3974C174.937 89.7501 175.378 89.7501 175.642 90.2791C175.995 90.808 176.083 93.7174 177.23 94.6872C178.377 95.657 179.965 95.8333 180.759 95.657C181.553 95.4807 182.347 94.8635 182.347 94.8635L184.111 95.5688C184.111 95.5688 193.285 93.0121 193.021 86.4881V85.7828C193.021 85.7828 193.638 84.9011 193.903 84.284C194.079 83.6669 195.579 81.022 194.873 79.8759C194.873 79.8759 198.402 65.858 187.463 64.9763C176.348 64.1829 174.672 71.9412 173.26 76.7902Z" fill="#FCD1C5"/>
<path d="M192.932 86.5761C192.491 86.2234 192.05 86.0471 191.697 86.1353C190.462 86.3998 190.727 83.7549 190.727 83.7549C190.727 83.7549 190.462 84.1957 189.845 87.5459C189.227 90.8961 182.258 94.8634 182.258 94.8634L184.023 95.5687C184.023 95.5687 193.197 93.012 192.932 86.5761Z" fill="#E2B1A6"/>
<path d="M173.261 70.707C172.202 72.9992 171.673 75.7323 173.878 77.5837C173.878 77.5837 175.731 78.1127 179.348 76.4376C181.729 75.2915 184.199 75.8204 185.523 76.2613C186.14 76.4376 186.493 77.0547 186.493 77.6719L186.405 79.6996C186.405 80.2286 186.669 80.6694 187.199 80.9339L188.875 81.6392L189.228 83.5788C189.316 84.1077 189.933 84.4604 190.463 84.2841L190.904 84.1077C190.904 84.1077 191.168 79.7878 194.697 79.9641C194.697 79.9641 197.608 73.7045 194.609 67.974C191.61 62.2434 183.582 62.6842 181.818 63.3013C179.524 64.183 179.877 64.0066 178.554 64.8001C176.348 66.2989 174.407 68.2384 173.261 70.707Z" fill="#39335E"/>
<path d="M202.46 114.7C202.46 114.7 200.784 126.955 200.078 130.393L194.697 133.214L204.224 132.597L202.46 114.7Z" fill="#1A8C85"/>
<path d="M194.697 79.9642C194.697 79.9642 195.668 77.8483 195.932 74.939C191.521 78.4655 186.581 77.672 186.581 77.672L186.493 79.6998C186.493 80.2287 186.758 80.6695 187.287 80.934L188.963 81.6393L189.316 83.5789C189.404 84.1079 190.022 84.4606 190.551 84.2842L190.992 84.1079C190.904 84.0197 191.169 79.6998 194.697 79.9642Z" fill="#39335E"/>
<path d="M197.079 90.7202C197.079 90.7202 194.256 100.506 193.638 102.358L191.345 102.093L191.786 105.179L179.436 121.401L193.109 105.708L192.58 102.975L194.697 103.151L197.079 90.7202Z" fill="#1A8C85"/>
<path d="M184.993 143.706C184.993 143.706 213.84 142.736 214.634 142.207C215.339 141.678 215.516 134.273 215.428 129.953C215.339 126.955 215.428 115.141 212.869 106.854C214.898 113.907 213.84 138.681 212.869 139.915C211.987 141.149 184.464 141.943 184.464 141.943C184.817 143.001 184.993 143.706 184.993 143.706Z" fill="#263649"/>
<path d="M128.271 120.607C128.271 120.607 128.182 121.312 126.947 122.018C125.712 122.723 122.448 124.31 121.919 124.751C121.39 125.192 119.096 127.219 119.008 127.484C118.92 127.748 118.214 130.04 118.214 130.217C118.214 130.393 118.479 131.451 118.479 131.451L117.773 134.889C117.773 134.889 116.891 136.212 117.861 136.565C118.832 136.917 119.449 135.859 119.449 135.771C119.449 135.771 120.949 135.066 122.007 134.184C123.066 133.303 127.477 129.776 128.182 130.04C128.888 130.217 128.271 131.539 127.918 131.716C127.565 131.892 125.271 134.184 126.242 135.771C127.212 137.358 127.83 134.889 128.535 134.36C129.153 133.831 130.564 131.892 131.446 131.627C132.329 131.363 133.828 128.189 134.005 126.778C134.181 125.368 135.24 124.486 135.593 123.957C135.945 123.516 134.799 119.99 134.799 119.99L130.476 118.667L128.976 119.637L128.271 120.607Z" fill="#FCD1C5"/>
<path d="M210.664 102.005C209.782 100.594 209.341 101.652 208.106 102.798C206.43 104.385 204.401 106.854 203.342 110.028C201.401 115.758 202.107 129.953 202.725 131.98C202.725 131.98 184.64 134.978 183.405 134.89C182.17 134.801 184.993 143.706 184.993 143.706C184.993 143.706 213.84 142.736 214.634 142.207C215.339 141.678 215.516 134.273 215.428 129.953C215.339 126.338 215.428 109.499 210.664 102.005Z" fill="#334659"/>
<path d="M184.993 143.706C184.993 143.706 213.84 142.736 214.634 142.207C215.339 141.678 215.516 134.273 215.428 129.953C215.339 126.955 215.428 115.141 212.869 106.854C214.898 113.907 213.84 138.681 212.869 139.915C211.987 141.149 184.464 141.943 184.464 141.943C184.817 143.001 184.993 143.706 184.993 143.706Z" fill="#263649"/>
<path d="M218.78 140.532C218.692 139.915 218.339 139.298 217.545 138.857L217.016 138.592C215.163 137.534 211.811 137.623 209.606 138.857L194.256 147.761C193.109 148.467 192.492 149.26 192.492 150.053V152.698C192.492 153.404 192.933 154.021 193.727 154.55L194.256 154.814C196.109 155.872 199.461 155.784 201.666 154.55L217.016 145.645C218.162 145.028 218.78 144.147 218.78 143.353V140.532Z" fill="#9D9BB4"/>
<path d="M71.9694 126.568L61.3658 170.164L58.6147 169.846L65.0807 123.981L71.9694 126.568Z" fill="#EDBF96"/>
<path d="M74.4114 127.845L62.742 170.322L61.3657 170.164L71.9693 126.568L74.4114 127.845Z" fill="#D19865"/>
<path d="M181.502 195.084L170.898 238.68L168.147 238.362L174.613 192.497L181.502 195.084Z" fill="#EDBF96"/>
<path d="M183.944 196.361L172.274 238.838L170.898 238.68L181.502 195.084L183.944 196.361Z" fill="#D19865"/>
<path d="M227.574 168.726L234.561 213.277L235.498 212.306L229.905 166.862L227.574 168.726Z" fill="#EDBF96"/>
<path d="M221.748 170.591L233.167 213.277H234.561L227.574 168.493L221.748 170.591Z" fill="#D19865"/>
<path d="M194.256 152.257L193.727 151.993C191.874 150.935 192.05 148.995 194.256 147.761L209.605 138.857C211.811 137.622 215.075 137.446 217.016 138.592L217.545 138.857C219.397 139.915 219.221 141.854 217.016 143.089L201.666 151.993C199.461 153.227 196.108 153.404 194.256 152.257Z" fill="#CFCCDC"/>
<path opacity="0.5" d="M184.817 203.304L55.9336 128.895L106.481 99.8008L235.364 174.122L184.817 203.304Z" fill="url(#paint5_linear)"/>
<path d="M55.9336 124.398V128.895L184.817 203.304L235.364 174.122V169.626L184.817 198.808L55.9336 124.398Z" fill="url(#paint6_linear)"/>
<path d="M184.817 198.808L55.9336 124.398L106.481 95.2163L235.364 169.626L184.817 198.808Z" fill="url(#paint7_linear)"/>
<path d="M184.817 198.367L56.2865 124.222L55.9336 124.398L184.817 198.807L235.364 169.626L235.011 169.361L184.817 198.367Z" fill="#E1E1EF"/>
<path opacity="0.3" d="M169.467 144.411C169.467 144.411 173.084 145.734 175.819 145.205C178.554 144.764 191.874 144.499 191.874 144.499L189.757 143.265L185.082 140.003L173.525 140.796L169.026 142.383L169.467 144.411Z" fill="#180D5B"/>
<path d="M183.494 135.331C183.494 135.242 183.405 135.242 183.317 135.242C182.347 135.242 176.348 135.066 174.143 134.273C171.673 133.391 169.026 133.567 168.938 133.744C168.762 133.92 164.704 135.595 164.439 136.3C164.263 136.917 163.821 139.122 164.351 139.915C164.88 140.708 165.145 141.237 165.145 141.237L165.586 141.326C165.586 141.326 166.115 142.384 166.468 142.824C166.644 143.001 166.733 143.177 166.821 143.353C167.085 143.882 167.526 144.852 167.703 144.852C167.968 144.852 169.203 145.117 169.555 145.028C169.82 144.94 170.085 144.147 169.908 143.794C169.908 143.706 169.908 143.618 169.997 143.618C170.614 143.53 172.202 143.353 174.319 143.53C176.966 143.794 180.759 142.031 181.112 141.855C181.112 141.855 181.112 141.855 181.2 141.855L184.993 141.502C185.081 141.502 185.17 141.414 185.17 141.326L183.494 135.331Z" fill="#FCD1C5"/>
<path d="M210.664 102.005C209.782 100.594 209.341 101.652 208.106 102.798C206.43 104.385 204.401 106.854 203.342 110.028C201.401 115.758 202.107 129.953 202.725 131.98C202.725 131.98 184.64 134.978 183.405 134.89C182.17 134.801 184.993 143.706 184.993 143.706C184.993 143.706 213.84 142.736 214.634 142.207C215.339 141.678 215.516 134.273 215.428 129.953C215.339 126.338 215.428 109.499 210.664 102.005Z" fill="#1BC8BD"/>
<path d="M184.994 143.706C184.994 143.706 213.84 142.736 214.634 142.207C215.34 141.678 215.516 134.272 215.428 129.952C215.34 126.955 215.428 115.141 212.87 106.854C214.899 113.907 213.84 138.68 212.87 139.915C211.988 141.149 184.464 141.942 184.464 141.942C184.817 143 184.994 143.706 184.994 143.706Z" fill="#1A8C85"/>
<path opacity="0.3" d="M133.211 128.894C133.211 128.894 143.532 120.871 145.031 120.078C146.531 119.285 147.149 118.667 147.149 118.667L143.708 116.64L137.886 119.02L130.564 126.338L119.272 134.36V136.212C119.272 136.212 128.623 132.244 129.682 131.539C130.564 130.922 133.211 128.894 133.211 128.894Z" fill="#180D5B"/>
<path opacity="0.63" d="M127.124 136.212C127.124 136.212 129.329 134.273 130.741 133.567C132.152 132.95 134.446 131.187 134.71 129.864C134.975 128.542 137.357 125.544 137.357 125.544L133.563 127.749L128.094 130.922L119.008 136.212C119.008 136.212 119.537 136.829 120.684 136.477C121.831 136.124 123.948 134.713 125.006 134.625C125.977 134.537 127.653 134.184 127.653 134.184L127.124 136.212Z" fill="#2D2D2D"/>
<path d="M128.271 120.607C128.271 120.607 128.182 121.312 126.947 122.018C125.712 122.723 122.448 124.31 121.919 124.751C121.39 125.192 119.096 127.219 119.008 127.484C118.92 127.748 118.214 130.04 118.214 130.217C118.214 130.393 118.479 131.451 118.479 131.451L117.773 134.889C117.773 134.889 116.891 136.212 117.861 136.565C118.832 136.917 119.449 135.859 119.449 135.771C119.449 135.771 120.949 135.066 122.007 134.184C123.066 133.303 127.477 129.776 128.182 130.04C128.888 130.217 128.271 131.539 127.918 131.716C127.565 131.892 125.271 134.184 126.242 135.771C127.212 137.358 127.83 134.889 128.535 134.36C129.153 133.831 130.564 131.892 131.446 131.627C132.329 131.363 133.828 128.189 134.005 126.778C134.181 125.368 135.24 124.486 135.593 123.957C135.945 123.516 134.799 119.99 134.799 119.99L130.476 118.667L128.976 119.637L128.271 120.607Z" fill="#FCD1C5"/>
<path d="M167.438 96.803C167.438 96.803 167.262 90.3671 168.409 85.3418C168.144 85.6063 167.791 85.7826 167.527 86.1353C165.939 87.7222 163.821 89.8381 161.704 90.8961C157.823 93.012 146.09 99.4478 146.09 99.4478L143.885 101.123C137.004 106.501 129.329 118.227 128.271 120.519C128.8 119.813 130.211 118.667 132.858 119.99C136.475 121.929 134.798 124.839 134.798 124.839C140.091 121.048 152.706 107.03 152.706 107.03C155.794 106.413 165.145 102.886 166.38 102.445C166.997 100.682 167.438 98.7425 167.438 96.803Z" fill="#1BC8BD"/>
<path d="M101.806 140.884L104.276 142.206L129.417 127.748C129.858 127.483 130.564 127.571 131.093 127.836L174.407 152.874C174.848 152.609 176.701 151.728 176.701 151.728L175.819 154.108C175.819 154.196 175.73 154.285 175.554 154.373L149.089 169.625C148.648 169.889 147.942 169.801 147.413 169.537L103.041 143.97C102.864 143.881 102.688 143.705 102.688 143.617L101.806 140.884Z" fill="#CDCADD"/>
<path d="M102.247 141.237L147.678 167.421C148.207 167.686 148.913 167.774 149.354 167.509L176.436 151.904C176.877 151.64 176.789 151.199 176.348 150.935L130.917 124.75C130.387 124.486 129.682 124.398 129.241 124.662L102.158 140.267C101.629 140.531 101.717 140.972 102.247 141.237Z" fill="#E1E1EF"/>
<path d="M102.247 140.973L147.678 167.157C148.207 167.421 148.913 167.51 149.354 167.245L176.436 151.64C176.612 151.552 176.701 151.464 176.701 151.376C176.789 151.552 176.701 151.817 176.436 151.905L149.354 167.51C148.913 167.774 148.207 167.686 147.678 167.421L102.247 141.237C101.894 141.061 101.805 140.796 101.894 140.532C101.894 140.708 101.982 140.884 102.247 140.973Z" fill="white"/>
<path d="M161.175 155.431L123.419 133.655C123.154 133.479 122.889 133.479 122.625 133.655L109.216 141.414C109.039 141.502 109.039 141.766 109.216 141.943L146.972 163.719C147.237 163.895 147.501 163.895 147.766 163.719L161.263 155.96C161.351 155.872 161.351 155.608 161.175 155.431Z" fill="#9D9BB4"/>
<path d="M161.175 155.96L160.998 156.049L123.418 134.36C123.154 134.184 122.889 134.184 122.624 134.36L109.304 142.031L109.127 141.943C108.951 141.854 108.951 141.59 109.127 141.414L122.536 133.655C122.801 133.479 123.066 133.479 123.33 133.655L161.086 155.431C161.351 155.608 161.351 155.872 161.175 155.96Z" fill="#9198DB"/>
<path d="M121.566 135.683L156.323 155.696L158.087 154.991L123.066 134.801L121.566 135.683Z" fill="#24126A"/>
<path d="M118.037 137.711L148.736 155.431L150.236 154.638L119.449 136.829L118.037 137.711Z" fill="#24126A"/>
<path d="M115.655 139.033L151.912 159.928L153.323 159.134L117.155 138.24L115.655 139.033Z" fill="#24126A"/>
<path d="M113.362 140.444L149.53 161.338L151.03 160.457L114.773 139.562L113.362 140.444Z" fill="#24126A"/>
<path d="M110.98 141.766L147.237 162.661L148.648 161.779L112.48 140.885L110.98 141.766Z" fill="#24126A"/>
<path d="M156.323 155.696L157.822 156.577L159.234 155.696L157.822 154.902L156.323 155.696Z" fill="#24126A"/>
<path d="M146.972 154.462L154.205 158.605L155.705 157.812L148.383 153.58L146.972 154.462Z" fill="#24126A"/>
<path d="M147.678 145.734L137.533 139.827C137.092 139.562 137.092 139.209 137.533 139.033L144.502 134.978C144.943 134.713 145.561 134.713 145.913 134.978L156.058 140.885C156.499 141.149 156.499 141.502 156.058 141.678L149.089 145.734C148.736 145.91 148.119 145.91 147.678 145.734Z" fill="#CFCCDC"/>
<path d="M156.146 141.237L146.001 135.33C145.56 135.065 144.943 135.065 144.59 135.33L137.621 139.385C137.533 139.473 137.445 139.562 137.356 139.65C137.268 139.473 137.356 139.209 137.621 139.033L144.59 134.977C145.031 134.713 145.649 134.713 146.001 134.977L156.146 140.884C156.411 141.06 156.499 141.237 156.411 141.501C156.323 141.325 156.234 141.237 156.146 141.237Z" fill="#9198DB"/>
<path d="M101.894 140.179L107.628 106.148L107.187 105.972L107.893 105.531C108.069 105.443 108.246 105.443 108.422 105.531L154.294 131.98C154.647 132.156 155 132.773 154.912 133.126L149.09 167.421C149.09 167.598 149.001 167.686 148.825 167.774L148.119 168.127L148.031 167.509L102.423 141.149C102.159 141.149 101.806 140.532 101.894 140.179Z" fill="#CFCCDC"/>
<path d="M154.03 133.038L154.824 132.685C154.912 132.861 154.912 133.038 154.912 133.214L149.089 167.509C149.089 167.686 149.001 167.774 148.825 167.862L148.119 168.215L148.031 167.598L145.737 166.275L154.03 133.038Z" fill="#9D9BB4"/>
<path d="M101.806 141.766L147.678 168.215C148.031 168.391 148.295 168.303 148.384 167.95L154.206 133.655C154.294 133.302 154.029 132.685 153.588 132.509L107.716 106.06C107.363 105.884 107.099 105.972 107.011 106.324L101.188 140.62C101.1 140.972 101.365 141.501 101.806 141.766Z" fill="#F9F8FF"/>
<defs>
<linearGradient id="paint0_linear" x1="227.257" y1="-42.8959" x2="228.918" y2="154.36" gradientUnits="userSpaceOnUse">
<stop offset="0.16" stop-color="white"/>
<stop offset="1" stop-color="#41D4CC"/>
</linearGradient>
<linearGradient id="paint1_linear" x1="212.259" y1="-22.4511" x2="199.862" y2="190.275" gradientUnits="userSpaceOnUse">
<stop offset="0.16" stop-color="white"/>
<stop offset="1" stop-color="#FF9D33"/>
</linearGradient>
<linearGradient id="paint2_linear" x1="186.098" y1="178.348" x2="131.142" y2="191.768" gradientUnits="userSpaceOnUse">
<stop stop-color="#5761D7"/>
<stop offset="0.1779" stop-color="#5C66D9"/>
<stop offset="0.3876" stop-color="#6A73DF"/>
<stop offset="0.6134" stop-color="#8289E8"/>
<stop offset="0.849" stop-color="#A3A7F5"/>
<stop offset="1" stop-color="#BCBEFF"/>
</linearGradient>
<linearGradient id="paint3_linear" x1="186.508" y1="173.445" x2="247.352" y2="173.445" gradientUnits="userSpaceOnUse">
<stop stop-color="#5761D7"/>
<stop offset="0.1779" stop-color="#5C66D9"/>
<stop offset="0.3876" stop-color="#6A73DF"/>
<stop offset="0.6134" stop-color="#8289E8"/>
<stop offset="0.849" stop-color="#A3A7F5"/>
<stop offset="1" stop-color="#BCBEFF"/>
</linearGradient>
<linearGradient id="paint4_linear" x1="179.649" y1="172.135" x2="165.436" y2="158.388" gradientUnits="userSpaceOnUse">
<stop stop-color="#5761D7"/>
<stop offset="0.1779" stop-color="#5C66D9"/>
<stop offset="0.3876" stop-color="#6A73DF"/>
<stop offset="0.6134" stop-color="#8289E8"/>
<stop offset="0.849" stop-color="#A3A7F5"/>
<stop offset="1" stop-color="#BCBEFF"/>
</linearGradient>
<linearGradient id="paint5_linear" x1="55.9062" y1="151.527" x2="235.381" y2="151.527" gradientUnits="userSpaceOnUse">
<stop stop-color="#42E8E0"/>
<stop offset="0.1507" stop-color="#43E3E0"/>
<stop offset="0.3285" stop-color="#45D5DF"/>
<stop offset="0.5199" stop-color="#49BDDD"/>
<stop offset="0.7209" stop-color="#4E9CDB"/>
<stop offset="0.9274" stop-color="#5472D8"/>
<stop offset="1" stop-color="#5761D7"/>
</linearGradient>
<linearGradient id="paint6_linear" x1="239.389" y1="166.615" x2="-73.5642" y2="157.294" gradientUnits="userSpaceOnUse">
<stop stop-color="#A6A6E7"/>
<stop offset="1" stop-color="#EEEFFF"/>
</linearGradient>
<linearGradient id="paint7_linear" x1="193.797" y1="198.248" x2="121.929" y2="121.263" gradientUnits="userSpaceOnUse">
<stop stop-color="#E8EDFE"/>
<stop offset="1" stop-color="#EEF4FF"/>
</linearGradient>
</defs>
</svg>
