<svg width="700" height="576" viewBox="0 0 700 576" fill="none" xmlns="http://www.w3.org/2000/svg">
<path d="M9.59554 341.799L53.2844 315.322L54.3057 314.688L127.928 270.038L128.94 269.404L192.705 230.751C195.631 228.967 198.99 228.015 202.417 228C205.845 227.985 209.211 228.907 212.153 230.666L280.888 271.494L281.932 272.128L341.672 307.606C344.574 309.334 347.887 310.251 351.265 310.261C354.643 310.27 357.961 309.372 360.873 307.66L367.629 303.711L368.301 303.315L423.858 270.777L424.004 270.691L424.902 270.168L489.422 232.388C492.342 230.67 495.671 229.771 499.059 229.787C502.447 229.802 505.768 230.73 508.673 232.474L571.788 270.216L572.822 270.825L647.961 315.773L648.995 316.407L690.111 340.993C703.064 348.738 703.051 368.095 690.089 375.821L645.744 402.224L644.722 402.859L572.568 445.891L571.547 446.5L498.185 490.249L497.163 490.858L422.948 535.13L421.914 535.765L359.903 572.752C356.986 574.501 353.65 575.427 350.25 575.431C346.849 575.435 343.511 574.516 340.591 572.774L278.11 535.749L277.067 535.115L201.62 490.36L200.587 489.751L127.957 446.687L126.913 446.053L57.4582 404.873L56.4148 404.238L9.76046 376.582C-3.17969 368.922 -3.27167 349.598 9.59554 341.799Z" fill="#F9F8FF"/>
<path opacity="0.3" d="M423.582 270.606L423.861 270.435L423.994 270.682L424.895 270.156L497.966 313.863L498.99 314.472L574.138 359.42L575.169 360.042L645.731 402.24L644.71 402.862L574.138 360.651L573.104 360.033L497.956 315.085L496.932 314.472L424.14 270.939L423.852 270.768L423.582 270.606Z" fill="#908ABC"/>
<path opacity="0.3" d="M337.765 306.683L338.282 305.763L351.13 313.445L352.173 314.066L424.48 357.324L425.513 357.933L500.652 402.881L501.683 403.503L572.555 445.894L571.534 446.503L500.652 404.111L499.618 403.493L424.48 358.545H424.47L423.449 357.933L351.139 314.688L350.096 314.057L337.765 306.683Z" fill="#908ABC"/>
<path opacity="0.3" d="M127.928 270.038L128.94 269.417L206.235 315.649L207.269 316.271L276.436 357.635L277.469 358.256L349.788 401.501L350.81 402.123H350.819L425.958 447.061L426.992 447.68L498.172 490.252L497.151 490.861H497.141L425.958 448.289L424.927 447.67L349.776 402.732L348.754 402.11L276.436 358.865L275.405 358.244L206.235 316.88L205.204 316.261L127.928 270.038Z" fill="#908ABC"/>
<path opacity="0.3" d="M53.2842 315.306L54.3054 314.688L130.652 360.34L131.696 360.962L200.856 402.326L201.887 402.947H201.896L274.206 446.205L275.24 446.814L350.375 491.762L351.418 492.384L422.913 535.137L421.879 535.758L350.375 492.993L349.335 492.371L274.196 447.436L273.162 446.814L200.856 403.566L199.812 402.947L130.652 361.583L129.609 360.962L53.2842 315.306Z" fill="#908ABC"/>
<path opacity="0.3" d="M277.066 535.115L349.335 492.371L350.375 491.762L424.927 447.67L425.957 447.061L499.618 403.493L500.652 402.881L573.104 360.033L574.138 359.42L647.941 315.766L648.975 316.388L575.169 360.042L574.138 360.651L501.683 403.503L500.652 404.111L426.991 447.68L425.957 448.289L351.418 492.384L350.375 492.993L278.11 535.736L277.066 535.115Z" fill="#908ABC"/>
<path opacity="0.3" d="M200.577 489.751L273.163 446.814L274.206 446.205L348.755 402.11L349.789 401.501L423.449 357.933L424.48 357.324L496.932 314.472L497.966 313.863L571.772 270.209L572.803 270.818L498.99 314.472L497.956 315.084L425.514 357.933L424.48 358.545H424.47L350.819 402.123H350.81L349.776 402.732L275.24 446.814L274.196 447.436L201.621 490.36H201.608L200.577 489.751Z" fill="#908ABC"/>
<path opacity="0.3" d="M126.916 446.065L199.812 402.947L200.856 402.326L275.404 358.244L276.435 357.635L350.096 314.057L351.13 313.445L367.625 303.698L368.294 303.302L423.582 270.606L423.861 270.435L423.994 270.682L424.14 270.939L424.378 271.364L352.173 314.066L351.139 314.688L277.469 358.256L276.435 358.865L201.896 402.947H201.886L200.856 403.566L127.956 446.684L126.916 446.065Z" fill="#908ABC"/>
<path opacity="0.3" d="M56.415 404.251L129.609 360.962L130.653 360.34L205.205 316.261L206.235 315.649L280.889 271.494L281.932 272.116L207.269 316.271L206.235 316.88L131.696 360.962L130.653 361.583L57.4585 404.873L56.415 404.251Z" fill="#908ABC"/>
<path opacity="0.45" d="M498.5 459.5L365.962 535.55C362.048 537.8 357.6 538.99 353.07 539C348.54 539.01 344.087 537.84 340.163 535.609L107.589 391.5C90.4075 381.722 98.3176 373.42 115.541 363.717L222.725 303.336C226.585 301.163 230.95 300.014 235.394 300C239.839 299.986 244.211 301.108 248.085 303.257L480 433C497.307 442.603 515.668 449.635 498.5 459.5Z" fill="#E1E1EF"/>
<path d="M232 131.494L257.446 146.046C265.098 150.393 271.795 148.692 274.282 142.077L324.408 6.57102C330.147 -8.92621 353.489 5.0591 358.463 26.982L389.457 163.433C391.753 173.45 398.64 183.277 406.676 187.813L414.137 191.971C421.407 196.129 427.721 194.806 430.591 188.947L440.731 167.591C447.044 154.362 468.281 166.835 474.021 187.246C476.699 196.696 483.395 205.767 490.857 209.925L497.362 213.516C505.206 218.052 512.093 216.162 514.389 208.98L523.764 180.631C528.93 164.567 552.462 177.986 557.819 199.908L588.813 326.154C591.3 336.171 598.965 343.653 607 348L642 370L232 131.494Z" fill="url(#paint0_linear)"/>
<path d="M205 145.849L230.446 160.441C238.098 164.799 244.795 163.094 247.282 156.461L297.408 20.5888C303.147 5.04967 326.489 19.0728 331.463 41.0549L362.457 177.875C364.753 187.919 371.64 197.773 379.676 202.321L387.137 206.49C394.407 210.659 400.721 209.332 403.591 203.458L413.731 182.044C420.044 168.779 441.281 181.286 447.021 201.752C449.699 211.227 456.395 220.323 463.857 224.492L470.362 228.093C478.206 232.641 485.093 230.746 487.389 223.545L496.764 195.12C501.93 179.012 525.462 192.467 530.819 214.449L561.813 341.036C564.3 351.079 572.465 359.641 580.5 364L615 385L205 145.849Z" fill="url(#paint1_linear)"/>
<path d="M389.088 443.941C392.642 443.941 395.523 441.062 395.523 437.51C395.523 433.958 392.642 431.079 389.088 431.079C385.534 431.079 382.653 433.958 382.653 437.51C382.653 441.062 385.534 443.941 389.088 443.941Z" fill="#24126A"/>
<path d="M453.249 371.307C456.803 371.307 459.684 368.428 459.684 364.876C459.684 361.324 456.803 358.445 453.249 358.445C449.695 358.445 446.814 361.324 446.814 364.876C446.814 368.428 449.695 371.307 453.249 371.307Z" fill="#24126A"/>
<path d="M467.254 420.865C470.808 420.865 473.689 417.985 473.689 414.434C473.689 410.882 470.808 408.002 467.254 408.002C463.7 408.002 460.819 410.882 460.819 414.434C460.819 417.985 463.7 420.865 467.254 420.865Z" fill="#24126A"/>
<path d="M326.441 408.57C329.995 408.57 332.876 405.691 332.876 402.139C332.876 398.587 329.995 395.708 326.441 395.708C322.887 395.708 320.006 398.587 320.006 402.139C320.006 405.691 322.887 408.57 326.441 408.57Z" fill="#24126A"/>
<path d="M366.754 364.687C370.308 364.687 373.189 361.807 373.189 358.255C373.189 354.704 370.308 351.824 366.754 351.824C363.2 351.824 360.319 354.704 360.319 358.255C360.319 361.807 363.2 364.687 366.754 364.687Z" fill="#24126A"/>
<path d="M398.362 382.278L326.82 396.086C326.441 396.086 326.252 396.086 325.874 396.275V395.897L322.467 394.951V398.923C322.467 399.112 322.467 399.301 322.467 399.491C322.845 401.004 325.495 402.139 328.145 401.95L399.687 388.141L398.362 382.278Z" fill="url(#paint2_linear)"/>
<path d="M458.17 357.877L455.899 359.769C454.006 359.012 451.167 359.201 449.274 360.336L398.362 382.467L405.554 386.628L456.466 364.497C457.602 363.741 458.17 362.984 458.17 362.039V357.877Z" fill="url(#paint3_linear)"/>
<path d="M371.676 352.77C370.351 351.257 367.323 350.689 364.862 351.446C364.484 351.446 364.294 351.635 364.105 351.824C363.916 351.635 363.916 351.446 363.727 351.257C363.348 350.879 362.212 350.122 362.212 350.122V354.094C362.212 354.472 362.402 354.851 362.78 355.418L395.712 385.493L404.797 382.845L371.676 352.77Z" fill="url(#paint4_linear)"/>
<path d="M471.797 407.624L470.661 408.002L469.904 409.516C469.715 409.327 469.336 409.327 468.958 409.137L404.418 382.845L399.876 387.952L464.416 414.244C466.876 415.001 469.904 414.434 471.229 412.92C471.608 412.542 471.797 411.975 471.797 411.596V407.624Z" fill="#9D9BB4"/>
<path d="M395.523 385.493L384.924 430.89L384.167 430.512V434.673C384.356 435.997 386.06 437.132 388.331 437.321C391.17 437.51 393.63 436.564 394.009 434.862L405.365 386.25L395.523 385.493Z" fill="#E1E1EF"/>
<path d="M469.147 405.165L409.339 380.765L456.656 360.147C458.738 359.012 458.927 357.121 457.224 355.986L456.656 355.607C454.763 354.472 451.546 354.662 449.464 355.986L402.147 376.603L371.675 348.798C370.351 347.285 367.322 346.717 364.862 347.474C362.401 348.23 361.455 349.933 362.591 351.446L393.062 379.251L326.63 392.114C323.791 392.303 322.088 393.816 322.466 395.518C322.845 397.032 325.495 398.167 328.144 397.977L394.577 385.115L383.978 430.133C383.599 431.646 385.492 433.16 388.142 433.538C390.981 433.727 393.441 432.781 393.82 431.079L404.418 386.061L464.226 410.461C466.687 411.218 469.715 410.651 471.04 409.137C472.554 407.624 471.608 405.733 469.147 405.165ZM402.904 380.765L401.769 382.089L399.308 381.899L398.93 380.575L401.201 380.008L402.904 380.765Z" fill="#E1E1EF"/>
<path d="M400.822 384.548C397.983 384.548 395.522 382.278 395.522 379.251V318.912H405.932V379.251C405.932 382.278 403.661 384.548 400.822 384.548Z" fill="#24126A"/>
<path d="M373 247.223C372.81 245.899 372.053 244.575 370.35 243.629L369.214 243.062C365.24 240.792 358.048 240.981 353.316 243.629L320.384 262.734C317.923 264.247 316.599 265.949 316.599 267.652V273.326C316.599 274.839 317.545 276.163 319.248 277.298L320.384 277.866C324.359 280.136 331.551 279.946 336.282 277.298L369.214 258.194C371.675 256.87 373 254.978 373 253.276V247.223Z" fill="#9D9BB4"/>
<path d="M320.384 272.38L319.249 271.813C315.274 269.543 315.653 265.382 320.384 262.734L353.316 243.629C358.048 240.981 365.051 240.603 369.215 243.062L370.35 243.629C374.325 245.899 373.946 250.06 369.215 252.709L336.282 271.813C331.362 274.461 324.359 274.65 320.384 272.38Z" fill="#CFCCDC"/>
<path d="M390.223 298.862L321.141 338.773C317.734 340.664 314.896 338.584 314.896 334.044C314.896 329.504 317.734 324.208 321.141 322.127L400.254 276.542V279.757C400.254 287.134 395.712 295.646 390.223 298.862Z" fill="#515151"/>
<path d="M395.333 128.625C392.873 127.301 389.845 127.49 386.438 129.381L384.356 130.516C376.785 134.867 370.54 146.783 370.54 156.998V293.565L388.898 282.973V287.323L366.944 305.293L316.978 338.773L387.384 378.495L427.887 347.474L450.977 327.802L465.362 167.968L395.333 128.625Z" fill="#E1E1EF"/>
<path d="M343.664 354.283C343.664 354.283 341.771 349.365 345.556 345.582C349.342 341.799 368.647 333.666 370.161 332.909C371.486 331.963 378.489 326.856 378.489 326.856L380.571 322.127C380.571 322.127 341.014 325.91 340.635 326.667C340.068 327.235 322.087 343.312 322.655 344.069C323.223 344.826 334.958 347.663 334.958 347.663L337.229 350.879L343.664 354.283Z" fill="#2D2D2D"/>
<path d="M456.466 169.103L454.384 170.238C446.813 174.589 440.567 186.505 440.567 196.72V333.287L391.169 361.849C387.762 363.741 384.923 369.037 384.923 373.766C384.923 378.306 387.762 380.386 391.169 378.495L460.251 338.584C465.74 335.368 470.282 326.856 470.282 319.29V316.075V179.507C470.282 169.293 464.036 164.753 456.466 169.103Z" fill="#B5B3C9"/>
<path d="M325.116 383.791C325.116 383.791 314.895 390.411 311.489 394.194C308.082 397.977 301.268 405.922 304.107 409.705C306.946 413.488 316.409 415.569 326.63 406.111C336.85 396.653 334.011 396.086 342.528 391.546C351.234 386.817 353.506 381.899 352.559 378.873C351.424 376.036 347.26 370.929 344.799 372.064C342.339 373.198 325.116 383.791 325.116 383.791Z" fill="#160A5B"/>
<path d="M365.084 406.754C365.084 406.754 361.488 414.887 359.595 417.536C357.702 420.184 348.618 435.505 353.349 439.099C358.081 442.693 367.166 441.747 374.358 433.992C381.55 426.237 383.064 416.779 384.767 413.752C386.471 410.726 391.013 402.403 388.931 397.675C386.849 392.946 386.471 392 386.471 392L365.084 406.754Z" fill="#160A5B"/>
<path d="M337.607 296.781C337.607 296.781 307.325 326.667 302.404 341.61C302.404 341.61 300.322 349.744 306.189 355.986C312.056 362.417 324.548 383.034 324.548 383.034C324.548 383.034 333.822 394.194 345.745 385.304C345.745 385.304 351.234 376.603 347.827 370.929C344.421 365.254 335.714 346.906 335.714 346.906C335.714 346.906 355.209 333.477 364.672 330.261C374.325 326.856 379.435 324.208 379.435 324.208C379.435 324.208 377.731 333.287 370.728 341.988C363.726 350.879 351.991 364.876 355.966 374.901C359.94 384.737 362.212 387.763 365.808 393.438C369.404 399.112 373 411.029 376.028 412.164C379.245 413.488 393.63 414.812 395.901 405.354C398.172 395.897 390.98 377.549 387.762 371.496C387.762 371.496 426.94 326.289 430.536 321.371C434.132 316.453 349.72 289.026 337.607 296.781Z" fill="#24126A"/>
<path d="M347.638 370.929C344.232 365.254 335.525 346.906 335.525 346.906C335.525 346.906 355.02 333.477 364.483 330.261C374.136 326.856 379.246 324.208 379.246 324.208C381.138 321.749 387.006 311.913 389.655 304.347C367.511 297.916 343.664 292.998 337.607 296.781C339.689 302.077 351.045 302.077 351.045 302.077C351.045 302.077 355.209 312.292 358.048 313.616C360.887 314.94 367.511 313.426 367.511 313.426C367.511 313.426 366.376 315.129 361.644 318.534C356.912 321.938 327.198 346.339 327.198 346.339C327.198 346.339 328.901 347.285 336.85 361.66C344.799 376.036 345.746 385.493 345.746 385.493C345.746 385.493 351.045 376.792 347.638 370.929Z" fill="#160A5B"/>
<path d="M414.638 312.481C397.226 310.778 376.785 310.589 381.328 319.858C389.088 335.368 404.797 336.125 404.797 336.125C404.607 341.799 380.76 369.415 380.76 369.415C380.76 369.415 380.76 369.415 386.438 380.197C392.116 390.979 391.359 410.84 391.359 410.84C393.441 409.705 395.144 407.813 395.901 405.165C398.172 395.708 390.98 377.36 387.763 371.307C387.763 371.307 426.941 326.1 430.537 321.182C431.483 319.858 424.859 316.453 414.638 312.481Z" fill="#160A5B"/>
<path d="M306.946 217.148L311.678 213.554C311.678 213.554 336.85 199.557 345.178 195.206C349.72 192.747 354.452 188.397 357.67 184.992C360.887 181.587 365.429 179.696 370.161 179.696L414.071 179.507C414.071 179.507 419.181 187.64 420.884 189.343C422.209 190.478 434.133 200.503 442.65 208.825C447.381 213.365 450.788 219.04 452.681 225.471C457.602 242.684 457.412 277.488 458.17 302.266C458.17 302.266 455.141 303.401 447.571 305.104C440 306.617 440.946 305.671 440.946 305.671C440.946 305.671 429.78 330.828 414.449 333.287C399.308 335.746 378.678 328.559 375.082 304.725C375.082 304.725 345.367 300.375 337.418 296.97C336.661 296.592 336.472 295.835 336.85 295.079C340.446 290.35 353.884 271.813 355.02 259.896C356.534 246.088 355.966 225.849 355.02 220.364C355.02 220.364 332.687 228.875 325.494 230.199C325.494 230.199 298.24 260.086 286.884 268.219C286.884 268.219 290.859 262.166 282.91 258.005L306.946 217.148Z" fill="#17BCB2"/>
<path d="M447.76 304.725C448.895 304.536 449.841 304.158 450.788 303.969L449.274 300.942L408.014 296.592L383.977 297.916L375.649 305.86C376.028 308.508 376.785 310.778 377.542 312.859C377.542 312.859 387.762 314.372 392.494 313.237C397.226 312.292 433.943 317.588 433.943 317.588C438.107 311.535 440.757 306.049 440.946 305.293C441.135 305.671 441.514 306.049 447.76 304.725Z" fill="#39335E"/>
<path d="M391.926 290.35C391.926 290.161 391.737 290.161 391.548 290.161C389.466 290.161 376.596 289.782 371.864 288.08C366.565 286.189 360.887 286.567 360.698 286.945C360.319 287.323 351.613 290.917 351.045 292.431C350.667 293.755 349.72 298.483 350.856 300.186C351.991 301.888 352.559 303.023 352.559 303.023L353.506 303.212C353.506 303.212 354.641 305.482 355.398 306.428C355.777 306.806 355.966 307.184 356.155 307.563C356.723 308.698 357.669 310.778 358.048 310.778C358.616 310.778 361.265 311.346 362.023 311.157C362.59 310.967 363.158 309.265 362.78 308.508C362.78 308.319 362.78 308.13 362.969 308.13C364.294 307.941 367.7 307.563 372.243 307.941C377.921 308.508 386.059 304.725 386.816 304.347C386.816 304.347 386.816 304.347 387.006 304.347L395.144 303.591C395.333 303.591 395.522 303.401 395.522 303.212L391.926 290.35Z" fill="#FCD1C5"/>
<path d="M382.274 205.231C382.274 205.231 375.46 230.578 382.652 256.681C382.652 256.681 409.149 207.312 411.988 199.368C414.827 191.423 415.963 185.749 413.313 182.722C410.663 179.885 386.627 194.639 386.627 194.639L382.274 205.231Z" fill="#F0F6FF"/>
<path d="M389.087 244.953C389.087 244.953 394.198 229.443 393.251 224.525C392.305 219.607 391.169 216.013 391.169 216.013L395.712 211.852L397.794 216.013C397.794 216.013 407.825 208.636 408.393 207.312C408.393 207.312 400.254 212.797 397.794 213.743C397.794 213.743 396.658 211.852 394.955 211.095C393.441 210.339 389.466 215.824 389.466 215.824L388.709 225.092L384.734 246.845L386.059 250.06L389.087 244.953Z" fill="#C4CCD6"/>
<path d="M384.734 205.421C384.734 205.421 383.788 215.446 384.545 216.013C385.302 216.77 388.52 216.77 389.844 216.013C391.359 215.256 394.955 210.906 394.955 210.906C394.955 210.906 390.412 202.962 384.734 205.421Z" fill="#24126A"/>
<path d="M390.034 214.311C390.034 214.311 392.684 221.309 390.223 230.767C387.763 240.225 386.627 249.115 386.627 249.115L382.653 256.492C382.653 256.492 377.732 242.116 379.435 227.551C380.192 221.12 385.113 215.256 385.113 215.256L390.034 214.311Z" fill="#24126A"/>
<path d="M369.972 164.753C369.972 164.753 368.836 170.995 369.214 172.13C369.593 173.265 371.296 174.021 370.918 176.48C370.539 178.939 371.864 186.127 372.621 188.397C372.621 188.397 372.053 191.045 372.811 191.802C373.568 192.558 374.514 192.558 375.082 193.693C375.839 194.828 376.028 201.07 378.488 203.151C380.949 205.231 384.356 205.61 386.059 205.231C387.763 204.853 389.466 203.529 389.466 203.529L393.251 205.042C393.251 205.042 412.935 199.557 412.367 185.56V184.046C412.367 184.046 413.692 182.155 414.26 180.831C414.638 179.507 417.856 173.832 416.342 171.373C416.342 171.373 423.912 141.298 400.443 139.406C376.596 137.704 373 154.35 369.972 164.753Z" fill="#FCD1C5"/>
<path d="M412.177 185.749C411.231 184.992 410.285 184.614 409.528 184.803C406.878 185.37 407.446 179.696 407.446 179.696C407.446 179.696 406.878 180.642 405.553 187.829C404.228 195.017 389.276 203.529 389.276 203.529L393.062 205.042C393.062 205.042 412.745 199.557 412.177 185.749Z" fill="#E2B1A6"/>
<path d="M369.971 151.701C367.7 156.619 366.565 162.483 371.296 166.455C371.296 166.455 375.271 167.59 383.031 163.996C388.141 161.537 393.44 162.672 396.279 163.618C397.604 163.996 398.361 165.32 398.361 166.644L398.172 170.995C398.172 172.13 398.74 173.076 399.875 173.643L403.471 175.156L404.228 179.318C404.418 180.452 405.743 181.209 406.878 180.831L407.825 180.452C407.825 180.452 408.392 171.184 415.963 171.562C415.963 171.562 422.209 158.133 415.774 145.838C409.339 133.543 392.116 134.489 388.33 135.813C383.409 137.704 384.166 137.326 381.327 139.028C376.596 142.244 372.432 146.405 369.971 151.701Z" fill="#39335E"/>
<path d="M432.618 246.088C432.618 246.088 429.022 272.38 427.508 279.757L415.963 285.81L436.404 284.486L432.618 246.088Z" fill="#1A8C85"/>
<path d="M415.963 171.562C415.963 171.562 418.045 167.023 418.613 160.781C409.149 168.347 398.551 166.644 398.551 166.644L398.361 170.995C398.361 172.13 398.929 173.076 400.065 173.643L403.661 175.156L404.418 179.318C404.607 180.453 405.932 181.209 407.068 180.831L408.014 180.453C407.825 180.263 408.392 170.995 415.963 171.562Z" fill="#39335E"/>
<path d="M421.073 194.639C421.073 194.639 415.017 215.635 413.692 219.607L408.771 219.04L409.717 225.66L383.22 260.464L412.556 226.795L411.421 220.931L415.963 221.309L421.073 194.639Z" fill="#1A8C85"/>
<path d="M395.144 308.319C395.144 308.319 457.034 306.239 458.737 305.104C460.251 303.969 460.63 288.08 460.44 278.812C460.251 272.38 460.44 247.034 454.952 229.254C459.305 244.386 457.034 297.538 454.952 300.186C453.059 302.834 394.008 304.536 394.008 304.536C394.765 306.806 395.144 308.319 395.144 308.319Z" fill="#263649"/>
<path d="M273.446 258.761C273.446 258.761 273.257 260.275 270.607 261.788C267.957 263.301 260.955 266.706 259.819 267.652C258.683 268.597 253.763 272.948 253.573 273.515C253.384 274.083 251.87 279.001 251.87 279.379C251.87 279.757 252.438 282.027 252.438 282.027L250.924 289.404C250.924 289.404 249.031 292.241 251.113 292.998C253.195 293.755 254.52 291.485 254.52 291.296C254.52 291.296 257.737 289.782 260.008 287.891C262.279 285.999 271.743 278.433 273.257 279.001C274.771 279.379 273.446 282.216 272.689 282.595C271.932 282.973 267.011 287.891 269.093 291.296C271.175 294.7 272.5 289.404 274.014 288.269C275.339 287.134 278.367 282.973 280.26 282.405C282.152 281.838 285.37 275.029 285.748 272.002C286.127 268.976 288.398 267.084 289.155 265.949C289.912 265.003 287.452 257.437 287.452 257.437L278.178 254.6L274.96 256.681L273.446 258.761Z" fill="#FCD1C5"/>
<path d="M450.22 218.85C448.328 215.824 447.381 218.094 444.731 220.553C441.135 223.957 436.782 229.254 434.511 236.063C430.347 248.358 431.861 278.812 433.186 283.162C433.186 283.162 394.387 289.593 391.737 289.404C389.087 289.215 395.144 308.319 395.144 308.319C395.144 308.319 457.034 306.239 458.737 305.104C460.251 303.969 460.63 288.08 460.441 278.812C460.251 271.056 460.441 234.928 450.22 218.85Z" fill="#334659"/>
<path d="M395.144 308.319C395.144 308.319 457.034 306.239 458.737 305.104C460.251 303.969 460.63 288.08 460.441 278.812C460.251 272.38 460.441 247.034 454.952 229.254C459.305 244.386 457.034 297.538 454.952 300.186C453.059 302.834 394.008 304.536 394.008 304.536C394.765 306.806 395.144 308.319 395.144 308.319Z" fill="#263649"/>
<path d="M467.633 301.51C467.443 300.186 466.686 298.862 464.983 297.916L463.847 297.348C459.873 295.079 452.681 295.268 447.949 297.916L415.017 317.02C412.556 318.534 411.231 320.236 411.231 321.938V327.613C411.231 329.126 412.178 330.45 413.881 331.585L415.017 332.152C418.991 334.422 426.183 334.233 430.915 331.585L463.847 312.481C466.308 311.157 467.633 309.265 467.633 307.563V301.51Z" fill="#9D9BB4"/>
<path d="M152.652 271.55L129.902 365.084L124 364.402L137.873 266L152.652 271.55Z" fill="#EDBF96"/>
<path d="M157.892 274.291L132.856 365.423L129.903 365.084L152.653 271.55L157.892 274.291Z" fill="#D19865"/>
<path d="M387.652 418.55L364.902 512.084L359 511.402L372.873 413L387.652 418.55Z" fill="#EDBF96"/>
<path d="M392.892 421.291L367.856 512.423L364.903 512.084L387.653 418.55L392.892 421.291Z" fill="#D19865"/>
<path d="M486.5 362L501.49 457.584L503.5 455.5L491.5 358L486.5 362Z" fill="#EDBF96"/>
<path d="M474 366L498.5 457.584H501.489L486.5 361.5L474 366Z" fill="#D19865"/>
<path d="M415.017 326.667L413.881 326.1C409.906 323.83 410.285 319.668 415.017 317.02L447.949 297.916C452.68 295.268 459.683 294.89 463.847 297.348L464.983 297.916C468.957 300.186 468.579 304.347 463.847 306.995L430.915 326.1C426.183 328.748 418.991 329.126 415.017 326.667Z" fill="#CFCCDC"/>
<path opacity="0.5" d="M394.765 436.186L118.249 276.542L226.698 214.122L503.215 373.577L394.765 436.186Z" fill="url(#paint5_linear)"/>
<path d="M118.249 266.895V276.542L394.765 436.186L503.215 373.577V363.93L394.765 426.539L118.249 266.895Z" fill="url(#paint6_linear)"/>
<path d="M394.765 426.539L118.249 266.895L226.698 204.286L503.215 363.93L394.765 426.539Z" fill="url(#paint7_linear)"/>
<path d="M394.765 425.594L119.006 266.517L118.249 266.895L394.765 426.539L503.215 363.93L502.458 363.363L394.765 425.594Z" fill="#E1E1EF"/>
<path opacity="0.3" d="M361.834 309.833C361.834 309.833 369.593 312.67 375.461 311.535C381.328 310.589 409.907 310.022 409.907 310.022L405.365 307.374L395.334 300.375L370.54 302.077L360.887 305.482L361.834 309.833Z" fill="#180D5B"/>
<path d="M391.926 290.35C391.926 290.161 391.737 290.161 391.548 290.161C389.466 290.161 376.596 289.782 371.864 288.08C366.565 286.188 360.887 286.567 360.698 286.945C360.319 287.323 351.613 290.917 351.045 292.43C350.667 293.755 349.72 298.483 350.856 300.186C351.991 301.888 352.559 303.023 352.559 303.023L353.506 303.212C353.506 303.212 354.641 305.482 355.398 306.428C355.777 306.806 355.966 307.184 356.155 307.563C356.723 308.698 357.669 310.778 358.048 310.778C358.616 310.778 361.265 311.346 362.023 311.157C362.59 310.967 363.158 309.265 362.78 308.508C362.78 308.319 362.78 308.13 362.969 308.13C364.294 307.941 367.7 307.563 372.243 307.941C377.921 308.508 386.059 304.725 386.816 304.347C386.816 304.347 386.816 304.347 387.006 304.347L395.144 303.59C395.333 303.59 395.522 303.401 395.522 303.212L391.926 290.35Z" fill="#FCD1C5"/>
<path d="M450.22 218.85C448.328 215.824 447.381 218.094 444.731 220.553C441.135 223.957 436.782 229.254 434.511 236.063C430.347 248.358 431.861 278.812 433.186 283.162C433.186 283.162 394.387 289.593 391.737 289.404C389.087 289.215 395.144 308.319 395.144 308.319C395.144 308.319 457.034 306.239 458.737 305.104C460.251 303.969 460.63 288.08 460.441 278.812C460.251 271.056 460.441 234.928 450.22 218.85Z" fill="#1BC8BD"/>
<path d="M395.144 308.319C395.144 308.319 457.034 306.239 458.738 305.104C460.252 303.969 460.63 288.08 460.441 278.812C460.252 272.38 460.441 247.034 454.952 229.254C459.305 244.386 457.034 297.538 454.952 300.186C453.06 302.834 394.009 304.536 394.009 304.536C394.766 306.806 395.144 308.319 395.144 308.319Z" fill="#1A8C85"/>
<path opacity="0.3" d="M284.045 276.542C284.045 276.542 306.189 259.329 309.407 257.627C312.624 255.924 313.949 254.6 313.949 254.6L306.568 250.25L294.076 255.357L278.367 271.056L254.141 288.269V292.241C254.141 292.241 274.203 283.73 276.474 282.216C278.367 280.892 284.045 276.542 284.045 276.542Z" fill="#180D5B"/>
<path opacity="0.63" d="M270.986 292.241C270.986 292.241 275.717 288.08 278.746 286.567C281.774 285.243 286.695 281.46 287.263 278.622C287.83 275.785 292.94 269.354 292.94 269.354L284.802 274.083L273.068 280.892L253.573 292.241C253.573 292.241 254.709 293.565 257.169 292.809C259.63 292.052 264.172 289.026 266.443 288.837C268.525 288.647 272.121 287.891 272.121 287.891L270.986 292.241Z" fill="#2D2D2D"/>
<path d="M273.446 258.761C273.446 258.761 273.257 260.275 270.607 261.788C267.957 263.301 260.955 266.706 259.819 267.652C258.683 268.597 253.763 272.948 253.573 273.515C253.384 274.083 251.87 279.001 251.87 279.379C251.87 279.757 252.438 282.027 252.438 282.027L250.924 289.404C250.924 289.404 249.031 292.241 251.113 292.998C253.195 293.755 254.52 291.485 254.52 291.296C254.52 291.296 257.737 289.782 260.008 287.891C262.279 285.999 271.743 278.433 273.257 279.001C274.771 279.379 273.446 282.216 272.689 282.595C271.932 282.973 267.011 287.891 269.093 291.296C271.175 294.7 272.5 289.404 274.014 288.269C275.339 287.134 278.367 282.973 280.26 282.405C282.152 281.838 285.37 275.029 285.748 272.002C286.127 268.976 288.398 267.084 289.155 265.949C289.912 265.003 287.452 257.437 287.452 257.437L278.178 254.6L274.96 256.681L273.446 258.761Z" fill="#FCD1C5"/>
<path d="M357.48 207.69C357.48 207.69 357.102 193.882 359.562 183.101C358.994 183.668 358.237 184.046 357.67 184.803C354.263 188.208 349.72 192.747 345.178 195.017C336.85 199.557 311.678 213.365 311.678 213.365L306.946 216.959C292.184 228.497 275.717 253.654 273.446 258.572C274.582 257.059 277.61 254.6 283.288 257.437C291.048 261.599 287.452 267.841 287.452 267.841C298.808 259.707 325.873 229.632 325.873 229.632C332.497 228.308 352.559 220.742 355.209 219.796C356.534 216.013 357.48 211.852 357.48 207.69Z" fill="#1BC8BD"/>
<path d="M216.667 302.266L221.966 305.104L275.907 274.083C276.853 273.515 278.367 273.704 279.503 274.272L372.432 327.991C373.378 327.424 377.353 325.532 377.353 325.532L375.46 330.639C375.46 330.828 375.271 331.018 374.892 331.207L318.113 363.93C317.166 364.497 315.652 364.308 314.517 363.741L219.316 308.887C218.938 308.698 218.559 308.319 218.559 308.13L216.667 302.266Z" fill="#CDCADD"/>
<path d="M217.613 303.023L315.085 359.201C316.22 359.769 317.734 359.958 318.681 359.39L376.785 325.91C377.731 325.343 377.542 324.397 376.596 323.83L279.124 267.652C277.989 267.084 276.474 266.895 275.528 267.462L217.424 300.942C216.288 301.51 216.477 302.456 217.613 303.023Z" fill="#E1E1EF"/>
<path d="M217.613 302.456L315.085 358.634C316.22 359.201 317.734 359.39 318.681 358.823L376.785 325.343C377.164 325.154 377.353 324.965 377.353 324.776C377.542 325.154 377.353 325.721 376.785 325.91L318.681 359.39C317.734 359.958 316.22 359.769 315.085 359.201L217.613 303.023C216.856 302.645 216.667 302.077 216.856 301.51C216.856 301.888 217.045 302.266 217.613 302.456Z" fill="white"/>
<path d="M344.043 333.477L263.037 286.756C262.469 286.378 261.901 286.378 261.334 286.756L232.565 303.401C232.187 303.59 232.187 304.158 232.565 304.536L313.571 351.257C314.139 351.635 314.706 351.635 315.274 351.257L344.232 334.611C344.421 334.422 344.421 333.855 344.043 333.477Z" fill="#9D9BB4"/>
<path d="M344.042 334.611L343.664 334.801L263.037 288.269C262.469 287.891 261.901 287.891 261.333 288.269L232.754 304.725L232.376 304.536C231.997 304.347 231.997 303.78 232.376 303.401L261.144 286.756C261.712 286.378 262.28 286.378 262.847 286.756L343.853 333.477C344.421 333.855 344.421 334.422 344.042 334.611Z" fill="#9198DB"/>
<path d="M259.062 291.106L333.633 334.044L337.418 332.531L262.28 289.215L259.062 291.106Z" fill="#24126A"/>
<path d="M251.491 295.457L317.356 333.477L320.573 331.774L254.519 293.565L251.491 295.457Z" fill="#24126A"/>
<path d="M246.381 298.294L324.169 343.123L327.197 341.421L249.598 296.592L246.381 298.294Z" fill="#24126A"/>
<path d="M241.46 301.321L319.059 346.15L322.277 344.258L244.489 299.429L241.46 301.321Z" fill="#24126A"/>
<path d="M236.35 304.158L314.138 348.987L317.166 347.095L239.568 302.266L236.35 304.158Z" fill="#24126A"/>
<path d="M333.632 334.044L336.85 335.936L339.878 334.044L336.85 332.342L333.632 334.044Z" fill="#24126A"/>
<path d="M313.57 331.396L329.09 340.286L332.308 338.584L316.599 329.504L313.57 331.396Z" fill="#24126A"/>
<path d="M315.085 312.67L293.319 299.997C292.373 299.429 292.373 298.673 293.319 298.294L308.271 289.593C309.217 289.026 310.542 289.026 311.299 289.593L333.065 302.266C334.011 302.834 334.011 303.59 333.065 303.969L318.113 312.67C317.356 313.048 316.031 313.048 315.085 312.67Z" fill="#CFCCDC"/>
<path d="M333.254 303.023L311.489 290.35C310.542 289.782 309.217 289.782 308.46 290.35L293.508 299.051C293.319 299.24 293.13 299.429 292.941 299.618C292.751 299.24 292.941 298.673 293.508 298.294L308.46 289.593C309.407 289.026 310.732 289.026 311.489 289.593L333.254 302.266C333.822 302.645 334.011 303.023 333.822 303.591C333.633 303.212 333.443 303.023 333.254 303.023Z" fill="#9198DB"/>
<path d="M216.856 300.753L229.159 227.74L228.212 227.362L229.726 226.416C230.105 226.227 230.483 226.227 230.862 226.416L329.28 283.162C330.037 283.54 330.794 284.864 330.605 285.621L318.113 359.201C318.113 359.579 317.924 359.769 317.546 359.958L316.031 360.714L315.842 359.39L217.992 302.834C217.424 302.834 216.667 301.51 216.856 300.753Z" fill="#CFCCDC"/>
<path d="M328.712 285.432L330.415 284.675C330.604 285.054 330.604 285.432 330.604 285.81L318.113 359.39C318.113 359.769 317.924 359.958 317.545 360.147L316.031 360.904L315.842 359.58L310.921 356.742L328.712 285.432Z" fill="#9D9BB4"/>
<path d="M216.667 304.158L315.085 360.904C315.842 361.282 316.41 361.093 316.599 360.336L329.091 286.756C329.28 285.999 328.712 284.675 327.766 284.297L229.348 227.551C228.591 227.173 228.023 227.362 227.833 228.119L215.342 301.699C215.153 302.456 215.72 303.591 216.667 304.158Z" fill="#F9F8FF"/>
<defs>
<linearGradient id="paint0_linear" x1="485.822" y1="-92.0325" x2="489.385" y2="331.177" gradientUnits="userSpaceOnUse">
<stop offset="0.16" stop-color="white"/>
<stop offset="1" stop-color="#41D4CC"/>
</linearGradient>
<linearGradient id="paint1_linear" x1="453.642" y1="-48.1688" x2="427.046" y2="408.233" gradientUnits="userSpaceOnUse">
<stop offset="0.16" stop-color="white"/>
<stop offset="1" stop-color="#FF9D33"/>
</linearGradient>
<linearGradient id="paint2_linear" x1="397.513" y1="382.643" x2="279.606" y2="411.437" gradientUnits="userSpaceOnUse">
<stop stop-color="#5761D7"/>
<stop offset="0.1779" stop-color="#5C66D9"/>
<stop offset="0.3876" stop-color="#6A73DF"/>
<stop offset="0.6134" stop-color="#8289E8"/>
<stop offset="0.849" stop-color="#A3A7F5"/>
<stop offset="1" stop-color="#BCBEFF"/>
</linearGradient>
<linearGradient id="paint3_linear" x1="398.393" y1="372.124" x2="528.932" y2="372.124" gradientUnits="userSpaceOnUse">
<stop stop-color="#5761D7"/>
<stop offset="0.1779" stop-color="#5C66D9"/>
<stop offset="0.3876" stop-color="#6A73DF"/>
<stop offset="0.6134" stop-color="#8289E8"/>
<stop offset="0.849" stop-color="#A3A7F5"/>
<stop offset="1" stop-color="#BCBEFF"/>
</linearGradient>
<linearGradient id="paint4_linear" x1="383.677" y1="369.314" x2="353.183" y2="339.82" gradientUnits="userSpaceOnUse">
<stop stop-color="#5761D7"/>
<stop offset="0.1779" stop-color="#5C66D9"/>
<stop offset="0.3876" stop-color="#6A73DF"/>
<stop offset="0.6134" stop-color="#8289E8"/>
<stop offset="0.849" stop-color="#A3A7F5"/>
<stop offset="1" stop-color="#BCBEFF"/>
</linearGradient>
<linearGradient id="paint5_linear" x1="118.19" y1="325.099" x2="503.25" y2="325.099" gradientUnits="userSpaceOnUse">
<stop stop-color="#42E8E0"/>
<stop offset="0.1507" stop-color="#43E3E0"/>
<stop offset="0.3285" stop-color="#45D5DF"/>
<stop offset="0.5199" stop-color="#49BDDD"/>
<stop offset="0.7209" stop-color="#4E9CDB"/>
<stop offset="0.9274" stop-color="#5472D8"/>
<stop offset="1" stop-color="#5761D7"/>
</linearGradient>
<linearGradient id="paint6_linear" x1="511.849" y1="357.471" x2="-159.587" y2="337.472" gradientUnits="userSpaceOnUse">
<stop stop-color="#A6A6E7"/>
<stop offset="1" stop-color="#EEEFFF"/>
</linearGradient>
<linearGradient id="paint7_linear" x1="414.034" y1="425.338" x2="259.842" y2="260.168" gradientUnits="userSpaceOnUse">
<stop stop-color="#E8EDFE"/>
<stop offset="1" stop-color="#EEF4FF"/>
</linearGradient>
</defs>
</svg>
