<svg width="24" height="24" viewBox="0 0 24 24" fill="none" xmlns="http://www.w3.org/2000/svg">
<circle cx="12" cy="12" r="11" stroke-width="2" stroke="white"/>
<path d="M16 12C16 15.2147 15.4552 18.0781 14.6125 20.1007C14.1902 21.1141 13.7128 21.869 13.2338 22.3552C12.7583 22.8379 12.342 23 12 23C11.658 23 11.2417 22.8379 10.7662 22.3552C10.2872 21.869 9.80982 21.1141 9.38754 20.1007C8.54481 18.0781 8 15.2147 8 12C8 8.78532 8.54481 5.92188 9.38754 3.89933C9.80982 2.88587 10.2872 2.13101 10.7662 1.6448C11.2417 1.16211 11.658 1 12 1C12.342 1 12.7583 1.16211 13.2338 1.6448C13.7128 2.13101 14.1902 2.88587 14.6125 3.89933C15.4552 5.92188 16 8.78532 16 12Z" stroke="white" stroke-width="2"/>
<rect x="0.5" y="11.5" width="22" height="1" fill="white" stroke="white" />
</svg>
