<svg width="16" height="16" viewBox="0 0 16 16" fill="none" xmlns="http://www.w3.org/2000/svg">
<circle cx="8" cy="8" r="7.5" stroke="white"/>
<circle cx="8" cy="8" r="7.5" stroke="white"/>
<circle cx="8" cy="8" r="7.5" stroke="white"/>
<circle cx="8" cy="8" r="7.5" stroke="white"/>
<circle cx="8" cy="8" r="7.5" stroke="white"/>
<path d="M10.8332 8C10.8332 10.1596 10.4675 12.0913 9.89532 13.4645C9.60878 14.1522 9.28031 14.6761 8.94113 15.0204C8.60368 15.363 8.2859 15.5 7.99984 15.5C7.71378 15.5 7.396 15.363 7.05855 15.0204C6.71936 14.6761 6.39089 14.1522 6.10435 13.4645C5.53218 12.0913 5.1665 10.1596 5.1665 8C5.1665 5.84038 5.53218 3.90866 6.10435 2.53545C6.39089 1.84776 6.71936 1.32388 7.05855 0.979571C7.396 0.637022 7.71378 0.5 7.99984 0.5C8.2859 0.5 8.60368 0.637022 8.94113 0.979571C9.28031 1.32388 9.60878 1.84776 9.89532 2.53545C10.4675 3.90866 10.8332 5.84038 10.8332 8Z" stroke="white"/>
<path d="M10.8332 8C10.8332 10.1596 10.4675 12.0913 9.89532 13.4645C9.60878 14.1522 9.28031 14.6761 8.94113 15.0204C8.60368 15.363 8.2859 15.5 7.99984 15.5C7.71378 15.5 7.396 15.363 7.05855 15.0204C6.71936 14.6761 6.39089 14.1522 6.10435 13.4645C5.53218 12.0913 5.1665 10.1596 5.1665 8C5.1665 5.84038 5.53218 3.90866 6.10435 2.53545C6.39089 1.84776 6.71936 1.32388 7.05855 0.979571C7.396 0.637022 7.71378 0.5 7.99984 0.5C8.2859 0.5 8.60368 0.637022 8.94113 0.979571C9.28031 1.32388 9.60878 1.84776 9.89532 2.53545C10.4675 3.90866 10.8332 5.84038 10.8332 8Z" stroke="white"/>
<path d="M10.8332 8C10.8332 10.1596 10.4675 12.0913 9.89532 13.4645C9.60878 14.1522 9.28031 14.6761 8.94113 15.0204C8.60368 15.363 8.2859 15.5 7.99984 15.5C7.71378 15.5 7.396 15.363 7.05855 15.0204C6.71936 14.6761 6.39089 14.1522 6.10435 13.4645C5.53218 12.0913 5.1665 10.1596 5.1665 8C5.1665 5.84038 5.53218 3.90866 6.10435 2.53545C6.39089 1.84776 6.71936 1.32388 7.05855 0.979571C7.396 0.637022 7.71378 0.5 7.99984 0.5C8.2859 0.5 8.60368 0.637022 8.94113 0.979571C9.28031 1.32388 9.60878 1.84776 9.89532 2.53545C10.4675 3.90866 10.8332 5.84038 10.8332 8Z" stroke="white"/>
<path d="M10.8332 8C10.8332 10.1596 10.4675 12.0913 9.89532 13.4645C9.60878 14.1522 9.28031 14.6761 8.94113 15.0204C8.60368 15.363 8.2859 15.5 7.99984 15.5C7.71378 15.5 7.396 15.363 7.05855 15.0204C6.71936 14.6761 6.39089 14.1522 6.10435 13.4645C5.53218 12.0913 5.1665 10.1596 5.1665 8C5.1665 5.84038 5.53218 3.90866 6.10435 2.53545C6.39089 1.84776 6.71936 1.32388 7.05855 0.979571C7.396 0.637022 7.71378 0.5 7.99984 0.5C8.2859 0.5 8.60368 0.637022 8.94113 0.979571C9.28031 1.32388 9.60878 1.84776 9.89532 2.53545C10.4675 3.90866 10.8332 5.84038 10.8332 8Z" stroke="white"/>
<path d="M10.8332 8C10.8332 10.1596 10.4675 12.0913 9.89532 13.4645C9.60878 14.1522 9.28031 14.6761 8.94113 15.0204C8.60368 15.363 8.2859 15.5 7.99984 15.5C7.71378 15.5 7.396 15.363 7.05855 15.0204C6.71936 14.6761 6.39089 14.1522 6.10435 13.4645C5.53218 12.0913 5.1665 10.1596 5.1665 8C5.1665 5.84038 5.53218 3.90866 6.10435 2.53545C6.39089 1.84776 6.71936 1.32388 7.05855 0.979571C7.396 0.637022 7.71378 0.5 7.99984 0.5C8.2859 0.5 8.60368 0.637022 8.94113 0.979571C9.28031 1.32388 9.60878 1.84776 9.89532 2.53545C10.4675 3.90866 10.8332 5.84038 10.8332 8Z" stroke="white"/>
<rect x="1" y="7.5" width="14" height="1" fill="white"/>
</svg>
